<?xml version="1.0" encoding="utf-8"?>
<!-- Svg Vector Icons : http://www.onlinewebfonts.com/icon -->
<!DOCTYPE svg PUBLIC "-//W3C//DTD SVG 1.1//EN" "http://www.w3.org/Graphics/SVG/1.1/DTD/svg11.dtd">
<svg version="1.1" xmlns="http://www.w3.org/2000/svg" xmlns:xlink="http://www.w3.org/1999/xlink" x="0px" y="0px" viewBox="0 0 256 256" enable-background="new 0 0 256 256" xml:space="preserve">
<metadata> Svg Vector Icons : http://www.onlinewebfonts.com/icon </metadata>
<g><g><path fill="#000000" d="M64.7,111.5v78.3h37.2v-78.3H66.5H64.7z M70.7,122.9h25.2v5.9H70.7V122.9z M70.7,139.1h25.2v5.9H70.7V139.1z M70.7,155.8h25.2v5.9H70.7V155.8z M70.7,172.5h25.2v5.9H70.7V172.5z"/><path fill="#000000" d="M107.8,63.1h28.4v5.8h-28.4V63.1z"/><path fill="#000000" d="M164.8,126.7c-6.2,0-11.3,5.1-11.3,11.3s5.1,11.3,11.3,11.3c6.2,0,11.3-5.1,11.3-11.3S171,126.7,164.8,126.7z"/><path fill="#000000" d="M128,10C62.8,10,10,62.8,10,128c0,65.2,52.8,118,118,118c65.2,0,118-52.8,118-118C246,62.8,193.2,10,128,10z M206.7,195.7h-43.1h-20.1h-23.1h-12.6h-5.9h-43h-9.5v-5.9h9.5v-84.2h7.7V93.9h35.3V74.8v-5.9V57.2h40.2v11.7h24.5v28.7h-5.9V74.8h-18.6h-34.3v30.8v84.2h12.6v-23.5h12.1v5.9h-6.2v17.6h17.2h16.7c-2.8-3.6-7.7-10-12.6-17.3c-10.1-15.1-15.2-26.5-15.2-33.8c0-17.9,14.5-32.4,32.4-32.4c17.9,0,32.4,14.5,32.4,32.4c0,7.3-5.1,18.7-15.2,33.8c-4.9,7.3-9.8,13.7-12.6,17.3h37.3L206.7,195.7L206.7,195.7z M114.1,116.1v-5.9h17v5.9H114.1z M126.6,129.6v5.9h-12.5v-5.9H126.6z M114.1,96.7v-5.9h34.7v5.9H114.1z"/><path fill="#000000" d="M72.4,99.8h28.4v5.8H72.4V99.8z"/></g></g>
</svg>